# xmcd CD database file
#
# Track frame offsets:
#	150
#	48874
#	96266
#	140339
#	199969
#	248762
#
# Disc length: 4059 seconds
#
# Revision: 0
# Processed by: cddbd v1.5.2PL0 Copyright (c) Steve Scherf et al.
# Submitted via: CDex 1.70beta2
#
DISCID=4e0fd906
DTITLE=Greenbrier International, Inc. - Zen Garden
DYEAR=2008
DGENRE=New Age
TTITLE0=Divine Journey
TTITLE1=Simple Elegance
TTITLE2=Mystical Harmony
TTITLE3=Devotion
TTITLE4=Treasured Moments
TTITLE5=Radiant Beauty
EXTD=YEAR: 2008
EXTT0=
EXTT1=
EXTT2=
EXTT3=
EXTT4=
EXTT5=
PLAYORDER=
